<?xml version="1.0" encoding="UTF-8"?>
<svg xmlns="http://www.w3.org/2000/svg" viewBox="0 0 1040 500" width="1040" height="500">
<rect width="1040" height="500" rx="22" fill="#ffffff"/>
<rect x="1" y="1" width="1038" height="498" rx="21" fill="none" stroke="#dbe3ef"/>
<text x="32" y="38" font-family="Arial, sans-serif" font-size="20" font-weight="800" fill="#0f172a">Điểm trung bình toàn quốc theo năm</text>
<text x="32" y="64" font-family="Arial, sans-serif" font-size="13" fill="#64748b">Trạng thái ứng dụng: chương trình CT2006 | Giai đoạn 2022–2024</text><line x1="82" x2="952" y1="100" y2="100" stroke="#e2e8f0"/><text x="70" y="105" text-anchor="end" font-family="Arial" font-size="12" font-weight="700" fill="#64748b">6.9</text><line x1="82" x2="952" y1="172.5" y2="172.5" stroke="#e2e8f0"/><text x="70" y="177.5" text-anchor="end" font-family="Arial" font-size="12" font-weight="700" fill="#64748b">6.7</text><line x1="82" x2="952" y1="245" y2="245" stroke="#e2e8f0"/><text x="70" y="250" text-anchor="end" font-family="Arial" font-size="12" font-weight="700" fill="#64748b">6.6</text><line x1="82" x2="952" y1="317.5" y2="317.5" stroke="#e2e8f0"/><text x="70" y="322.5" text-anchor="end" font-family="Arial" font-size="12" font-weight="700" fill="#64748b">6.4</text><line x1="82" x2="952" y1="390" y2="390" stroke="#e2e8f0"/><text x="70" y="395" text-anchor="end" font-family="Arial" font-size="12" font-weight="700" fill="#64748b">6.3</text><text x="82" y="420" text-anchor="middle" font-family="Arial" font-size="13" fill="#64748b">2022</text><text x="517" y="420" text-anchor="middle" font-family="Arial" font-size="13" fill="#64748b">2023</text><text x="952" y="420" text-anchor="middle" font-family="Arial" font-size="13" fill="#64748b">2024</text><path d="M 82 323.076923076923 L 517 265.07692307692304 L 952 166.92307692307705" fill="none" stroke="#594DA3" stroke-width="3.5" stroke-linecap="round" stroke-linejoin="round"/><circle cx="82" cy="323.076923076923" r="5" fill="white" stroke="#594DA3" stroke-width="2"/><circle cx="517" cy="265.07692307692304" r="5" fill="white" stroke="#594DA3" stroke-width="2"/><circle cx="952" cy="166.92307692307705" r="5" fill="white" stroke="#594DA3" stroke-width="2"/><rect x="82" y="435" width="12" height="12" rx="3" fill="#594DA3"/><text x="101" y="445" font-family="Arial" font-size="12" font-weight="700" fill="#475569">Điểm TB</text></svg>
