<?xml version="1.0" encoding="UTF-8"?><svg xmlns="http://www.w3.org/2000/svg" viewBox="0 0 1260 760" width="1260" height="760"><rect width="1260" height="760" rx="22" fill="#fff"/><rect x="1" y="1" width="1258" height="758" rx="21" fill="none" stroke="#dbe3ef"/><text x="32" y="38" font-family="Arial" font-size="20" font-weight="800" fill="#0f172a">Xu hướng điểm trung bình theo môn</text><text x="32" y="64" font-family="Arial" font-size="13" fill="#64748b">Trạng thái ứng dụng: chương trình CT2006 | Chỉ số: Điểm trung bình | Giai đoạn 2022–2024</text><line x1="82" x2="982" y1="100" y2="100" stroke="#e2e8f0"/><text x="70" y="105" text-anchor="end" font-family="Arial" font-size="12" font-weight="700" fill="#64748b">8.4</text><line x1="82" x2="982" y1="217.5" y2="217.5" stroke="#e2e8f0"/><text x="70" y="222.5" text-anchor="end" font-family="Arial" font-size="12" font-weight="700" fill="#64748b">7.5</text><line x1="82" x2="982" y1="335" y2="335" stroke="#e2e8f0"/><text x="70" y="340" text-anchor="end" font-family="Arial" font-size="12" font-weight="700" fill="#64748b">6.7</text><line x1="82" x2="982" y1="452.5" y2="452.5" stroke="#e2e8f0"/><text x="70" y="457.5" text-anchor="end" font-family="Arial" font-size="12" font-weight="700" fill="#64748b">5.8</text><line x1="82" x2="982" y1="570" y2="570" stroke="#e2e8f0"/><text x="70" y="575" text-anchor="end" font-family="Arial" font-size="12" font-weight="700" fill="#64748b">4.9</text><text x="82" y="600" text-anchor="middle" font-family="Arial" font-size="13" fill="#64748b">2022</text><text x="532" y="600" text-anchor="middle" font-family="Arial" font-size="13" fill="#64748b">2023</text><text x="982" y="600" text-anchor="middle" font-family="Arial" font-size="13" fill="#64748b">2024</text><path d="M 82 359.3557422969187 L 532 388.31932773109236 L 982 361.9887955182072" fill="none" stroke="#00195A" stroke-width="2.4" stroke-linecap="round" stroke-linejoin="round"/><circle cx="82" cy="359.3557422969187" r="3.5" fill="#fff" stroke="#00195A" stroke-width="2"/><circle cx="532" cy="388.31932773109236" r="3.5" fill="#fff" stroke="#00195A" stroke-width="2"/><circle cx="982" cy="361.9887955182072" r="3.5" fill="#fff" stroke="#00195A" stroke-width="2"/><path d="M 82 354.0896358543417 L 532 308.0112044817926 L 982 259.29971988795506" fill="none" stroke="#31327E" stroke-width="2.4" stroke-linecap="round" stroke-linejoin="round"/><circle cx="82" cy="354.0896358543417" r="3.5" fill="#fff" stroke="#31327E" stroke-width="2"/><circle cx="532" cy="308.0112044817926" r="3.5" fill="#fff" stroke="#31327E" stroke-width="2"/><circle cx="982" cy="259.29971988795506" r="3.5" fill="#fff" stroke="#31327E" stroke-width="2"/><path d="M 82 533.1372549019607 L 532 493.6414565826329 L 982 485.74229691876747" fill="none" stroke="#594DA3" stroke-width="2.4" stroke-linecap="round" stroke-linejoin="round"/><circle cx="82" cy="533.1372549019607" r="3.5" fill="#fff" stroke="#594DA3" stroke-width="2"/><circle cx="532" cy="493.6414565826329" r="3.5" fill="#fff" stroke="#594DA3" stroke-width="2"/><circle cx="982" cy="485.74229691876747" r="3.5" fill="#fff" stroke="#594DA3" stroke-width="2"/><path d="M 82 326.4425770308123 L 532 346.19047619047603 L 982 333.0252100840336" fill="none" stroke="#826ACA" stroke-width="2.4" stroke-linecap="round" stroke-linejoin="round"/><circle cx="82" cy="326.4425770308123" r="3.5" fill="#fff" stroke="#826ACA" stroke-width="2"/><circle cx="532" cy="346.19047619047603" r="3.5" fill="#fff" stroke="#826ACA" stroke-width="2"/><circle cx="982" cy="333.0252100840336" r="3.5" fill="#fff" stroke="#826ACA" stroke-width="2"/><path d="M 82 329.0756302521007 L 532 323.8095238095237 L 982 331.7086834733893" fill="none" stroke="#AD88F1" stroke-width="2.4" stroke-linecap="round" stroke-linejoin="round"/><circle cx="82" cy="329.0756302521007" r="3.5" fill="#fff" stroke="#AD88F1" stroke-width="2"/><circle cx="532" cy="323.8095238095237" r="3.5" fill="#fff" stroke="#AD88F1" stroke-width="2"/><circle cx="982" cy="331.7086834733893" r="3.5" fill="#fff" stroke="#AD88F1" stroke-width="2"/><path d="M 82 550.2521008403361 L 532 369.8879551820728 L 982 384.36974789915956" fill="none" stroke="#7C3AED" stroke-width="2.4" stroke-linecap="round" stroke-linejoin="round"/><circle cx="82" cy="550.2521008403361" r="3.5" fill="#fff" stroke="#7C3AED" stroke-width="2"/><circle cx="532" cy="369.8879551820728" r="3.5" fill="#fff" stroke="#7C3AED" stroke-width="2"/><circle cx="982" cy="384.36974789915956" r="3.5" fill="#fff" stroke="#7C3AED" stroke-width="2"/><path d="M 82 376.4705882352941 L 532 417.282913165266 L 982 346.19047619047603" fill="none" stroke="#4F46E5" stroke-width="2.4" stroke-linecap="round" stroke-linejoin="round"/><circle cx="82" cy="376.4705882352941" r="3.5" fill="#fff" stroke="#4F46E5" stroke-width="2"/><circle cx="532" cy="417.282913165266" r="3.5" fill="#fff" stroke="#4F46E5" stroke-width="2"/><circle cx="982" cy="346.19047619047603" r="3.5" fill="#fff" stroke="#4F46E5" stroke-width="2"/><path d="M 82 331.7086834733893 L 532 401.4845938375349 L 982 264.5658263305321" fill="none" stroke="#2563EB" stroke-width="2.4" stroke-linecap="round" stroke-linejoin="round"/><circle cx="82" cy="331.7086834733893" r="3.5" fill="#fff" stroke="#2563EB" stroke-width="2"/><circle cx="532" cy="401.4845938375349" r="3.5" fill="#fff" stroke="#2563EB" stroke-width="2"/><circle cx="982" cy="264.5658263305321" r="3.5" fill="#fff" stroke="#2563EB" stroke-width="2"/><path d="M 82 153.9775910364146 L 532 119.74789915966392 L 982 136.8627450980391" fill="none" stroke="#0F766E" stroke-width="2.4" stroke-linecap="round" stroke-linejoin="round"/><circle cx="82" cy="153.9775910364146" r="3.5" fill="#fff" stroke="#0F766E" stroke-width="2"/><circle cx="532" cy="119.74789915966392" r="3.5" fill="#fff" stroke="#0F766E" stroke-width="2"/><circle cx="982" cy="136.8627450980391" r="3.5" fill="#fff" stroke="#0F766E" stroke-width="2"/><rect x="1010" y="110" width="12" height="12" rx="3" fill="#00195A"/><text x="1029" y="120" font-family="Arial" font-size="12" font-weight="700" fill="#475569">Toán</text><rect x="1130" y="110" width="12" height="12" rx="3" fill="#31327E"/><text x="1149" y="120" font-family="Arial" font-size="12" font-weight="700" fill="#475569">Ngữ văn</text><rect x="1010" y="140" width="12" height="12" rx="3" fill="#594DA3"/><text x="1029" y="150" font-family="Arial" font-size="12" font-weight="700" fill="#475569">Tiếng Anh</text><rect x="1130" y="140" width="12" height="12" rx="3" fill="#826ACA"/><text x="1149" y="150" font-family="Arial" font-size="12" font-weight="700" fill="#475569">Vật lý</text><rect x="1010" y="170" width="12" height="12" rx="3" fill="#AD88F1"/><text x="1029" y="180" font-family="Arial" font-size="12" font-weight="700" fill="#475569">Hóa học</text><rect x="1130" y="170" width="12" height="12" rx="3" fill="#7C3AED"/><text x="1149" y="180" font-family="Arial" font-size="12" font-weight="700" fill="#475569">Sinh học</text><rect x="1010" y="200" width="12" height="12" rx="3" fill="#4F46E5"/><text x="1029" y="210" font-family="Arial" font-size="12" font-weight="700" fill="#475569">Lịch sử</text><rect x="1130" y="200" width="12" height="12" rx="3" fill="#2563EB"/><text x="1149" y="210" font-family="Arial" font-size="12" font-weight="700" fill="#475569">Địa lý</text><rect x="1010" y="230" width="12" height="12" rx="3" fill="#0F766E"/><text x="1029" y="240" font-family="Arial" font-size="12" font-weight="700" fill="#475569">GDCD</text></svg>
