<?xml version="1.0" encoding="UTF-8"?><svg xmlns="http://www.w3.org/2000/svg" viewBox="0 0 1480 860" width="1480" height="860"><rect width="1480" height="860" rx="22" fill="#fff"/><rect x="1" y="1" width="1478" height="858" rx="21" fill="none" stroke="#dbe3ef"/><text x="32" y="38" font-family="Arial" font-size="20" font-weight="800" fill="#0f172a">Địa phương &amp; Vùng miền</text><text x="32" y="64" font-family="Arial" font-size="13" fill="#64748b">Trạng thái ứng dụng: năm 2026 | Môn Tổng hợp | Toàn quốc | Xếp hạng thấp nhất | Top 10</text><line x1="740" y1="95" x2="740" y2="810" stroke="#e2e8f0" stroke-width="2"/><text x="48" y="110" font-family="Arial" font-size="17" font-weight="800" fill="#0f172a">Bottom tỉnh/thành theo điểm TB</text><text x="790" y="110" font-family="Arial" font-size="17" font-weight="800" fill="#0f172a">Điểm TB theo vùng miền</text><text x="48" y="150" font-family="Arial" font-size="13" font-weight="700" fill="#0f172a">1. Sơn La</text><rect x="230" y="134" width="370" height="20" rx="7" fill="#f1f5f9"/><rect x="230" y="134" width="338.1929824561403" height="20" rx="7" fill="#f87171"/><text x="620" y="150" font-family="Arial" font-size="13" font-weight="800" fill="#475569">5.21</text><text x="48" y="212" font-family="Arial" font-size="13" font-weight="700" fill="#0f172a">2. Điện Biên</text><rect x="230" y="196" width="370" height="20" rx="7" fill="#f1f5f9"/><rect x="230" y="196" width="344.6842105263157" height="20" rx="7" fill="#f87171"/><text x="620" y="212" font-family="Arial" font-size="13" font-weight="800" fill="#475569">5.31</text><text x="48" y="274" font-family="Arial" font-size="13" font-weight="700" fill="#0f172a">3. Cao Bằng</text><rect x="230" y="258" width="370" height="20" rx="7" fill="#f1f5f9"/><rect x="230" y="258" width="345.9824561403509" height="20" rx="7" fill="#f87171"/><text x="620" y="274" font-family="Arial" font-size="13" font-weight="800" fill="#475569">5.33</text><text x="48" y="336" font-family="Arial" font-size="13" font-weight="700" fill="#0f172a">4. Lai Châu</text><rect x="230" y="320" width="370" height="20" rx="7" fill="#f1f5f9"/><rect x="230" y="320" width="350.5263157894737" height="20" rx="7" fill="#f87171"/><text x="620" y="336" font-family="Arial" font-size="13" font-weight="800" fill="#475569">5.40</text><text x="48" y="398" font-family="Arial" font-size="13" font-weight="700" fill="#0f172a">5. Lạng Sơn</text><rect x="230" y="382" width="370" height="20" rx="7" fill="#f1f5f9"/><rect x="230" y="382" width="355.719298245614" height="20" rx="7" fill="#f87171"/><text x="620" y="398" font-family="Arial" font-size="13" font-weight="800" fill="#475569">5.48</text><text x="48" y="460" font-family="Arial" font-size="13" font-weight="700" fill="#0f172a">6. Đắk Lắk</text><rect x="230" y="444" width="370" height="20" rx="7" fill="#f1f5f9"/><rect x="230" y="444" width="357.66666666666663" height="20" rx="7" fill="#f87171"/><text x="620" y="460" font-family="Arial" font-size="13" font-weight="800" fill="#475569">5.51</text><text x="48" y="522" font-family="Arial" font-size="13" font-weight="700" fill="#0f172a">7. Lào Cai</text><rect x="230" y="506" width="370" height="20" rx="7" fill="#f1f5f9"/><rect x="230" y="506" width="358.31578947368416" height="20" rx="7" fill="#f87171"/><text x="620" y="522" font-family="Arial" font-size="13" font-weight="800" fill="#475569">5.52</text><text x="48" y="584" font-family="Arial" font-size="13" font-weight="700" fill="#0f172a">8. Vĩnh Long</text><rect x="230" y="568" width="370" height="20" rx="7" fill="#f1f5f9"/><rect x="230" y="568" width="363.50877192982455" height="20" rx="7" fill="#f87171"/><text x="620" y="584" font-family="Arial" font-size="13" font-weight="800" fill="#475569">5.60</text><text x="48" y="646" font-family="Arial" font-size="13" font-weight="700" fill="#0f172a">9. Gia Lai</text><rect x="230" y="630" width="370" height="20" rx="7" fill="#f1f5f9"/><rect x="230" y="630" width="368.05263157894734" height="20" rx="7" fill="#f87171"/><text x="620" y="646" font-family="Arial" font-size="13" font-weight="800" fill="#475569">5.67</text><text x="48" y="708" font-family="Arial" font-size="13" font-weight="700" fill="#0f172a">10. Cần Thơ</text><rect x="230" y="692" width="370" height="20" rx="7" fill="#f1f5f9"/><rect x="230" y="692" width="370" height="20" rx="7" fill="#f87171"/><text x="620" y="708" font-family="Arial" font-size="13" font-weight="800" fill="#475569">5.70</text><text x="790" y="162" font-family="Arial" font-size="13" font-weight="700" fill="#0f172a">Đồng bằng sông Hồng</text><rect x="790" y="175" width="470" height="20" rx="7" fill="#f1f5f9"/><rect x="790" y="175" width="470" height="20" rx="7" fill="#594da3"/><text x="1280" y="191" font-family="Arial" font-size="13" font-weight="800" fill="#475569">6.15</text><text x="790" y="250" font-family="Arial" font-size="13" font-weight="700" fill="#0f172a">Đông Nam Bộ</text><rect x="790" y="263" width="470" height="20" rx="7" fill="#f1f5f9"/><rect x="790" y="263" width="458.5365853658536" height="20" rx="7" fill="#594da3"/><text x="1280" y="279" font-family="Arial" font-size="13" font-weight="800" fill="#475569">6.00</text><text x="790" y="338" font-family="Arial" font-size="13" font-weight="700" fill="#0f172a">Bắc Trung Bộ &amp; Duyên hải miền Trung</text><rect x="790" y="351" width="470" height="20" rx="7" fill="#f1f5f9"/><rect x="790" y="351" width="450.8943089430894" height="20" rx="7" fill="#594da3"/><text x="1280" y="367" font-family="Arial" font-size="13" font-weight="800" fill="#475569">5.90</text><text x="790" y="426" font-family="Arial" font-size="13" font-weight="700" fill="#0f172a">Đồng bằng sông Cửu Long</text><rect x="790" y="439" width="470" height="20" rx="7" fill="#f1f5f9"/><rect x="790" y="439" width="439.4308943089431" height="20" rx="7" fill="#594da3"/><text x="1280" y="455" font-family="Arial" font-size="13" font-weight="800" fill="#475569">5.75</text><text x="790" y="514" font-family="Arial" font-size="13" font-weight="700" fill="#0f172a">Tây Nguyên</text><rect x="790" y="527" width="470" height="20" rx="7" fill="#f1f5f9"/><rect x="790" y="527" width="433.31707317073165" height="20" rx="7" fill="#594da3"/><text x="1280" y="543" font-family="Arial" font-size="13" font-weight="800" fill="#475569">5.67</text><text x="790" y="602" font-family="Arial" font-size="13" font-weight="700" fill="#0f172a">Trung du &amp; Miền núi phía Bắc</text><rect x="790" y="615" width="470" height="20" rx="7" fill="#f1f5f9"/><rect x="790" y="615" width="433.31707317073165" height="20" rx="7" fill="#594da3"/><text x="1280" y="631" font-family="Arial" font-size="13" font-weight="800" fill="#475569">5.67</text><text x="48" y="805" font-family="Arial" font-size="12" fill="#64748b">Nguồn: dữ liệu và logic tổng hợp của RegionTab trong ứng dụng.</text></svg>
