<?xml version="1.0" encoding="UTF-8"?><svg xmlns="http://www.w3.org/2000/svg" viewBox="0 0 1480 860" width="1480" height="860"><rect width="1480" height="860" rx="22" fill="#fff"/><rect x="1" y="1" width="1478" height="858" rx="21" fill="none" stroke="#dbe3ef"/><text x="32" y="38" font-family="Arial" font-size="20" font-weight="800" fill="#0f172a">Địa phương &amp; Vùng miền</text><text x="32" y="64" font-family="Arial" font-size="13" fill="#64748b">Trạng thái ứng dụng: năm 2026 | Môn Tổng hợp | Toàn quốc | Xếp hạng thấp nhất | Top 10</text><line x1="740" y1="95" x2="740" y2="810" stroke="#e2e8f0" stroke-width="2"/><text x="48" y="110" font-family="Arial" font-size="17" font-weight="800" fill="#0f172a">Bottom tỉnh/thành theo điểm TB</text><text x="790" y="110" font-family="Arial" font-size="17" font-weight="800" fill="#0f172a">Điểm TB theo vùng miền</text><text x="48" y="150" font-family="Arial" font-size="13" font-weight="700" fill="#0f172a">1. Sơn La</text><rect x="230" y="134" width="370" height="20" rx="7" fill="#f1f5f9"/><rect x="230" y="134" width="338.9981785063752" height="20" rx="7" fill="#f87171"/><text x="620" y="150" font-family="Arial" font-size="13" font-weight="800" fill="#475569">5.03</text><text x="48" y="212" font-family="Arial" font-size="13" font-weight="700" fill="#0f172a">2. Điện Biên</text><rect x="230" y="196" width="370" height="20" rx="7" fill="#f1f5f9"/><rect x="230" y="196" width="347.75956284153006" height="20" rx="7" fill="#f87171"/><text x="620" y="212" font-family="Arial" font-size="13" font-weight="800" fill="#475569">5.16</text><text x="48" y="274" font-family="Arial" font-size="13" font-weight="700" fill="#0f172a">3. Cao Bằng</text><rect x="230" y="258" width="370" height="20" rx="7" fill="#f1f5f9"/><rect x="230" y="258" width="349.78142076502735" height="20" rx="7" fill="#f87171"/><text x="620" y="274" font-family="Arial" font-size="13" font-weight="800" fill="#475569">5.19</text><text x="48" y="336" font-family="Arial" font-size="13" font-weight="700" fill="#0f172a">4. Lai Châu</text><rect x="230" y="320" width="370" height="20" rx="7" fill="#f1f5f9"/><rect x="230" y="320" width="351.8032786885246" height="20" rx="7" fill="#f87171"/><text x="620" y="336" font-family="Arial" font-size="13" font-weight="800" fill="#475569">5.22</text><text x="48" y="398" font-family="Arial" font-size="13" font-weight="700" fill="#0f172a">5. Lạng Sơn</text><rect x="230" y="382" width="370" height="20" rx="7" fill="#f1f5f9"/><rect x="230" y="382" width="357.86885245901635" height="20" rx="7" fill="#f87171"/><text x="620" y="398" font-family="Arial" font-size="13" font-weight="800" fill="#475569">5.31</text><text x="48" y="460" font-family="Arial" font-size="13" font-weight="700" fill="#0f172a">6. Vĩnh Long</text><rect x="230" y="444" width="370" height="20" rx="7" fill="#f1f5f9"/><rect x="230" y="444" width="358.54280510018214" height="20" rx="7" fill="#f87171"/><text x="620" y="460" font-family="Arial" font-size="13" font-weight="800" fill="#475569">5.32</text><text x="48" y="522" font-family="Arial" font-size="13" font-weight="700" fill="#0f172a">7. Đắk Lắk</text><rect x="230" y="506" width="370" height="20" rx="7" fill="#f1f5f9"/><rect x="230" y="506" width="359.21675774134786" height="20" rx="7" fill="#f87171"/><text x="620" y="522" font-family="Arial" font-size="13" font-weight="800" fill="#475569">5.33</text><text x="48" y="584" font-family="Arial" font-size="13" font-weight="700" fill="#0f172a">8. Lào Cai</text><rect x="230" y="568" width="370" height="20" rx="7" fill="#f1f5f9"/><rect x="230" y="568" width="361.2386156648452" height="20" rx="7" fill="#f87171"/><text x="620" y="584" font-family="Arial" font-size="13" font-weight="800" fill="#475569">5.36</text><text x="48" y="646" font-family="Arial" font-size="13" font-weight="700" fill="#0f172a">9. Cần Thơ</text><rect x="230" y="630" width="370" height="20" rx="7" fill="#f1f5f9"/><rect x="230" y="630" width="367.304189435337" height="20" rx="7" fill="#f87171"/><text x="620" y="646" font-family="Arial" font-size="13" font-weight="800" fill="#475569">5.45</text><text x="48" y="708" font-family="Arial" font-size="13" font-weight="700" fill="#0f172a">10. Khánh Hòa</text><rect x="230" y="692" width="370" height="20" rx="7" fill="#f1f5f9"/><rect x="230" y="692" width="370" height="20" rx="7" fill="#f87171"/><text x="620" y="708" font-family="Arial" font-size="13" font-weight="800" fill="#475569">5.49</text><text x="790" y="162" font-family="Arial" font-size="13" font-weight="700" fill="#0f172a">Bắc Trung Bộ và Duyên hải miền Trung</text><rect x="790" y="175" width="470" height="20" rx="7" fill="#f1f5f9"/><rect x="790" y="175" width="451.1686143572621" height="20" rx="7" fill="#594da3"/><text x="1280" y="191" font-family="Arial" font-size="13" font-weight="800" fill="#475569">5.75</text><text x="790" y="250" font-family="Arial" font-size="13" font-weight="700" fill="#0f172a">Trung du và miền núi phía Bắc</text><rect x="790" y="263" width="470" height="20" rx="7" fill="#f1f5f9"/><rect x="790" y="263" width="433.12186978297154" height="20" rx="7" fill="#594da3"/><text x="1280" y="279" font-family="Arial" font-size="13" font-weight="800" fill="#475569">5.52</text><text x="790" y="338" font-family="Arial" font-size="13" font-weight="700" fill="#0f172a">Tây Nguyên</text><rect x="790" y="351" width="470" height="20" rx="7" fill="#f1f5f9"/><rect x="790" y="351" width="429.98330550918195" height="20" rx="7" fill="#594da3"/><text x="1280" y="367" font-family="Arial" font-size="13" font-weight="800" fill="#475569">5.48</text><text x="790" y="426" font-family="Arial" font-size="13" font-weight="700" fill="#0f172a">Đông Nam Bộ</text><rect x="790" y="439" width="470" height="20" rx="7" fill="#f1f5f9"/><rect x="790" y="439" width="455.8764607679465" height="20" rx="7" fill="#594da3"/><text x="1280" y="455" font-family="Arial" font-size="13" font-weight="800" fill="#475569">5.81</text><text x="790" y="514" font-family="Arial" font-size="13" font-weight="700" fill="#0f172a">Đồng bằng sông Cửu Long</text><rect x="790" y="527" width="470" height="20" rx="7" fill="#f1f5f9"/><rect x="790" y="527" width="424.49081803005004" height="20" rx="7" fill="#594da3"/><text x="1280" y="543" font-family="Arial" font-size="13" font-weight="800" fill="#475569">5.41</text><text x="790" y="602" font-family="Arial" font-size="13" font-weight="700" fill="#0f172a">Đồng bằng sông Hồng</text><rect x="790" y="615" width="470" height="20" rx="7" fill="#f1f5f9"/><rect x="790" y="615" width="470" height="20" rx="7" fill="#594da3"/><text x="1280" y="631" font-family="Arial" font-size="13" font-weight="800" fill="#475569">5.99</text><text x="48" y="805" font-family="Arial" font-size="12" fill="#64748b">Nguồn: dữ liệu và logic tổng hợp của RegionTab trong ứng dụng.</text></svg>
