<svg viewBox="0 0 640 260" class="h-72 w-full"><g><line x1="56" x2="622" y1="18" y2="18" stroke="#E2E8F0" stroke-width="1"></line><text x="48" y="22" text-anchor="end" font-size="11" font-weight="700" fill="#64748B">0.4</text></g><g><line x1="56" x2="622" y1="68" y2="68" stroke="#E2E8F0" stroke-width="1"></line><text x="48" y="72" text-anchor="end" font-size="11" font-weight="700" fill="#64748B">0.2</text></g><g><line x1="56" x2="622" y1="118" y2="118" stroke="#E2E8F0" stroke-width="1"></line><text x="48" y="122" text-anchor="end" font-size="11" font-weight="700" fill="#64748B">-0.0</text></g><g><line x1="56" x2="622" y1="168" y2="168" stroke="#E2E8F0" stroke-width="1"></line><text x="48" y="172" text-anchor="end" font-size="11" font-weight="700" fill="#64748B">-0.3</text></g><g><line x1="56" x2="622" y1="218" y2="218" stroke="#E2E8F0" stroke-width="1"></line><text x="48" y="222" text-anchor="end" font-size="11" font-weight="700" fill="#64748B">-0.5</text></g><text x="56" y="246" text-anchor="middle" font-size="12" fill="#64748B">2022 Bắc</text><text x="126.75" y="246" text-anchor="middle" font-size="12" fill="#64748B">2022 Trung</text><text x="197.5" y="246" text-anchor="middle" font-size="12" fill="#64748B">2022 Nam</text><text x="268.25" y="246" text-anchor="middle" font-size="12" fill="#64748B">2023 Bắc</text><text x="339" y="246" text-anchor="middle" font-size="12" fill="#64748B">2023 Trung</text><text x="409.75" y="246" text-anchor="middle" font-size="12" fill="#64748B">2023 Nam</text><text x="480.5" y="246" text-anchor="middle" font-size="12" fill="#64748B">2024 Bắc</text><text x="551.25" y="246" text-anchor="middle" font-size="12" fill="#64748B">2024 Trung</text><text x="622" y="246" text-anchor="middle" font-size="12" fill="#64748B">2024 Nam</text><g><path d="M 56 157.8678414096916 L 126.75 123.2863436123348 L 197.5 184.96035242290748 L 268.25 75.26872246696036 L 339 51.03964757709251 L 409.75 106.98678414096916 L 480.5 152.58149779735683 L 551.25 123.72687224669603 L 622 181.65638766519825" fill="none" stroke="#00195A" stroke-width="3" stroke-linecap="round" stroke-linejoin="round"></path><circle cx="56" cy="157.8678414096916" r="4" fill="white" stroke="#00195A" stroke-width="2"></circle><circle cx="126.75" cy="123.2863436123348" r="4" fill="white" stroke="#00195A" stroke-width="2"></circle><circle cx="197.5" cy="184.96035242290748" r="4" fill="white" stroke="#00195A" stroke-width="2"></circle><circle cx="268.25" cy="75.26872246696036" r="4" fill="white" stroke="#00195A" stroke-width="2"></circle><circle cx="339" cy="51.03964757709251" r="4" fill="white" stroke="#00195A" stroke-width="2"></circle><circle cx="409.75" cy="106.98678414096916" r="4" fill="white" stroke="#00195A" stroke-width="2"></circle><circle cx="480.5" cy="152.58149779735683" r="4" fill="white" stroke="#00195A" stroke-width="2"></circle><circle cx="551.25" cy="123.72687224669603" r="4" fill="white" stroke="#00195A" stroke-width="2"></circle><circle cx="622" cy="181.65638766519825" r="4" fill="white" stroke="#00195A" stroke-width="2"></circle></g></svg>