<svg viewBox="0 0 640 260" class="h-72 w-full"><g><line x1="56" x2="622" y1="18" y2="18" stroke="#E2E8F0" stroke-width="1"></line><text x="48" y="22" text-anchor="end" font-size="11" font-weight="700" fill="#64748B">0.4</text></g><g><line x1="56" x2="622" y1="68" y2="68" stroke="#E2E8F0" stroke-width="1"></line><text x="48" y="72" text-anchor="end" font-size="11" font-weight="700" fill="#64748B">0.3</text></g><g><line x1="56" x2="622" y1="118" y2="118" stroke="#E2E8F0" stroke-width="1"></line><text x="48" y="122" text-anchor="end" font-size="11" font-weight="700" fill="#64748B">0.2</text></g><g><line x1="56" x2="622" y1="168" y2="168" stroke="#E2E8F0" stroke-width="1"></line><text x="48" y="172" text-anchor="end" font-size="11" font-weight="700" fill="#64748B">0.1</text></g><g><line x1="56" x2="622" y1="218" y2="218" stroke="#E2E8F0" stroke-width="1"></line><text x="48" y="222" text-anchor="end" font-size="11" font-weight="700" fill="#64748B">-0.1</text></g><text x="56" y="246" text-anchor="middle" font-size="12" fill="#64748B">2022 Bắc</text><text x="126.75" y="246" text-anchor="middle" font-size="12" fill="#64748B">2022 Trung</text><text x="197.5" y="246" text-anchor="middle" font-size="12" fill="#64748B">2022 Nam</text><text x="268.25" y="246" text-anchor="middle" font-size="12" fill="#64748B">2023 Bắc</text><text x="339" y="246" text-anchor="middle" font-size="12" fill="#64748B">2023 Trung</text><text x="409.75" y="246" text-anchor="middle" font-size="12" fill="#64748B">2023 Nam</text><text x="480.5" y="246" text-anchor="middle" font-size="12" fill="#64748B">2024 Bắc</text><text x="551.25" y="246" text-anchor="middle" font-size="12" fill="#64748B">2024 Trung</text><text x="622" y="246" text-anchor="middle" font-size="12" fill="#64748B">2024 Nam</text><g><path d="M 56 123.83657587548636 L 126.75 76.36575875486382 L 197.5 153.0194552529183 L 268.25 121.50194552529184 L 339 87.26070038910504 L 409.75 156.13229571984436 L 480.5 130.4513618677043 L 551.25 87.26070038910504 L 622 159.6342412451362" fill="none" stroke="#826ACA" stroke-width="3" stroke-linecap="round" stroke-linejoin="round"></path><circle cx="56" cy="123.83657587548636" r="4" fill="white" stroke="#826ACA" stroke-width="2"></circle><circle cx="126.75" cy="76.36575875486382" r="4" fill="white" stroke="#826ACA" stroke-width="2"></circle><circle cx="197.5" cy="153.0194552529183" r="4" fill="white" stroke="#826ACA" stroke-width="2"></circle><circle cx="268.25" cy="121.50194552529184" r="4" fill="white" stroke="#826ACA" stroke-width="2"></circle><circle cx="339" cy="87.26070038910504" r="4" fill="white" stroke="#826ACA" stroke-width="2"></circle><circle cx="409.75" cy="156.13229571984436" r="4" fill="white" stroke="#826ACA" stroke-width="2"></circle><circle cx="480.5" cy="130.4513618677043" r="4" fill="white" stroke="#826ACA" stroke-width="2"></circle><circle cx="551.25" cy="87.26070038910504" r="4" fill="white" stroke="#826ACA" stroke-width="2"></circle><circle cx="622" cy="159.6342412451362" r="4" fill="white" stroke="#826ACA" stroke-width="2"></circle></g></svg>