<svg xmlns="http://www.w3.org/2000/svg" width="1100" height="327" viewBox="0 0 1380 410"><rect width="1380" height="410" fill="#F5F7FB"/><g transform="translate(20 20)"><rect width="660" height="370" rx="18" fill="white" stroke="#E2E8F0"/><text x="24" y="30" font-size="16" font-weight="800" fill="#0F172A">KHTN − KHXH theo điểm thô</text><g transform="translate(10 52)"><g><line x1="56" x2="622" y1="18" y2="18" stroke="#E2E8F0" stroke-width="1"></line><text x="48" y="22" text-anchor="end" font-size="11" font-weight="700" fill="#64748B">0.4</text></g><g><line x1="56" x2="622" y1="68" y2="68" stroke="#E2E8F0" stroke-width="1"></line><text x="48" y="72" text-anchor="end" font-size="11" font-weight="700" fill="#64748B">0.2</text></g><g><line x1="56" x2="622" y1="118" y2="118" stroke="#E2E8F0" stroke-width="1"></line><text x="48" y="122" text-anchor="end" font-size="11" font-weight="700" fill="#64748B">-0.0</text></g><g><line x1="56" x2="622" y1="168" y2="168" stroke="#E2E8F0" stroke-width="1"></line><text x="48" y="172" text-anchor="end" font-size="11" font-weight="700" fill="#64748B">-0.3</text></g><g><line x1="56" x2="622" y1="218" y2="218" stroke="#E2E8F0" stroke-width="1"></line><text x="48" y="222" text-anchor="end" font-size="11" font-weight="700" fill="#64748B">-0.5</text></g><line x1="56" x2="622" y1="109.85022026431719" y2="109.85022026431719" stroke="#94A3B8" stroke-width="1.5" stroke-dasharray="5 4"></line><text x="56" y="246" text-anchor="middle" font-size="12" fill="#64748B">2022 Bắc</text><text x="126.75" y="246" text-anchor="middle" font-size="12" fill="#64748B">2022 Trung</text><text x="197.5" y="246" text-anchor="middle" font-size="12" fill="#64748B">2022 Nam</text><text x="268.25" y="246" text-anchor="middle" font-size="12" fill="#64748B">2023 Bắc</text><text x="339" y="246" text-anchor="middle" font-size="12" fill="#64748B">2023 Trung</text><text x="409.75" y="246" text-anchor="middle" font-size="12" fill="#64748B">2023 Nam</text><text x="480.5" y="246" text-anchor="middle" font-size="12" fill="#64748B">2024 Bắc</text><text x="551.25" y="246" text-anchor="middle" font-size="12" fill="#64748B">2024 Trung</text><text x="622" y="246" text-anchor="middle" font-size="12" fill="#64748B">2024 Nam</text><g><path d="M 56 157.8678414096916 L 126.75 123.2863436123348 L 197.5 184.96035242290748 L 268.25 75.26872246696036 L 339 51.03964757709251 L 409.75 106.98678414096916 L 480.5 152.58149779735683 L 551.25 123.72687224669603 L 622 181.65638766519825" fill="none" stroke="#00195A" stroke-width="3" stroke-linecap="round" stroke-linejoin="round"></path><circle cx="56" cy="157.8678414096916" r="4" fill="white" stroke="#00195A" stroke-width="2"></circle><circle cx="126.75" cy="123.2863436123348" r="4" fill="white" stroke="#00195A" stroke-width="2"></circle><circle cx="197.5" cy="184.96035242290748" r="4" fill="white" stroke="#00195A" stroke-width="2"></circle><circle cx="268.25" cy="75.26872246696036" r="4" fill="white" stroke="#00195A" stroke-width="2"></circle><circle cx="339" cy="51.03964757709251" r="4" fill="white" stroke="#00195A" stroke-width="2"></circle><circle cx="409.75" cy="106.98678414096916" r="4" fill="white" stroke="#00195A" stroke-width="2"></circle><circle cx="480.5" cy="152.58149779735683" r="4" fill="white" stroke="#00195A" stroke-width="2"></circle><circle cx="551.25" cy="123.72687224669603" r="4" fill="white" stroke="#00195A" stroke-width="2"></circle><circle cx="622" cy="181.65638766519825" r="4" fill="white" stroke="#00195A" stroke-width="2"></circle></g></g><circle cx="30" cy="342" r="5" fill="#00195A"/><text x="42" y="346" font-size="12" font-weight="700" fill="#64748B">Điểm thô</text></g><g transform="translate(700 20)"><rect width="660" height="370" rx="18" fill="white" stroke="#E2E8F0"/><text x="24" y="30" font-size="16" font-weight="800" fill="#0F172A">KHTN − KHXH sau chuẩn hóa theo môn</text><g transform="translate(10 52)"><g><line x1="56" x2="622" y1="18" y2="18" stroke="#E2E8F0" stroke-width="1"></line><text x="48" y="22" text-anchor="end" font-size="11" font-weight="700" fill="#64748B">0.4</text></g><g><line x1="56" x2="622" y1="68" y2="68" stroke="#E2E8F0" stroke-width="1"></line><text x="48" y="72" text-anchor="end" font-size="11" font-weight="700" fill="#64748B">0.3</text></g><g><line x1="56" x2="622" y1="118" y2="118" stroke="#E2E8F0" stroke-width="1"></line><text x="48" y="122" text-anchor="end" font-size="11" font-weight="700" fill="#64748B">0.2</text></g><g><line x1="56" x2="622" y1="168" y2="168" stroke="#E2E8F0" stroke-width="1"></line><text x="48" y="172" text-anchor="end" font-size="11" font-weight="700" fill="#64748B">0.1</text></g><g><line x1="56" x2="622" y1="218" y2="218" stroke="#E2E8F0" stroke-width="1"></line><text x="48" y="222" text-anchor="end" font-size="11" font-weight="700" fill="#64748B">-0.1</text></g><line x1="56" x2="622" y1="189.98443579766538" y2="189.98443579766538" stroke="#94A3B8" stroke-width="1.5" stroke-dasharray="5 4"></line><text x="56" y="246" text-anchor="middle" font-size="12" fill="#64748B">2022 Bắc</text><text x="126.75" y="246" text-anchor="middle" font-size="12" fill="#64748B">2022 Trung</text><text x="197.5" y="246" text-anchor="middle" font-size="12" fill="#64748B">2022 Nam</text><text x="268.25" y="246" text-anchor="middle" font-size="12" fill="#64748B">2023 Bắc</text><text x="339" y="246" text-anchor="middle" font-size="12" fill="#64748B">2023 Trung</text><text x="409.75" y="246" text-anchor="middle" font-size="12" fill="#64748B">2023 Nam</text><text x="480.5" y="246" text-anchor="middle" font-size="12" fill="#64748B">2024 Bắc</text><text x="551.25" y="246" text-anchor="middle" font-size="12" fill="#64748B">2024 Trung</text><text x="622" y="246" text-anchor="middle" font-size="12" fill="#64748B">2024 Nam</text><g><path d="M 56 123.83657587548636 L 126.75 76.36575875486382 L 197.5 153.0194552529183 L 268.25 121.50194552529184 L 339 87.26070038910504 L 409.75 156.13229571984436 L 480.5 130.4513618677043 L 551.25 87.26070038910504 L 622 159.6342412451362" fill="none" stroke="#826ACA" stroke-width="3" stroke-linecap="round" stroke-linejoin="round"></path><circle cx="56" cy="123.83657587548636" r="4" fill="white" stroke="#826ACA" stroke-width="2"></circle><circle cx="126.75" cy="76.36575875486382" r="4" fill="white" stroke="#826ACA" stroke-width="2"></circle><circle cx="197.5" cy="153.0194552529183" r="4" fill="white" stroke="#826ACA" stroke-width="2"></circle><circle cx="268.25" cy="121.50194552529184" r="4" fill="white" stroke="#826ACA" stroke-width="2"></circle><circle cx="339" cy="87.26070038910504" r="4" fill="white" stroke="#826ACA" stroke-width="2"></circle><circle cx="409.75" cy="156.13229571984436" r="4" fill="white" stroke="#826ACA" stroke-width="2"></circle><circle cx="480.5" cy="130.4513618677043" r="4" fill="white" stroke="#826ACA" stroke-width="2"></circle><circle cx="551.25" cy="87.26070038910504" r="4" fill="white" stroke="#826ACA" stroke-width="2"></circle><circle cx="622" cy="159.6342412451362" r="4" fill="white" stroke="#826ACA" stroke-width="2"></circle></g></g><circle cx="30" cy="342" r="5" fill="#826ACA"/><text x="42" y="346" font-size="12" font-weight="700" fill="#64748B">Điểm tương đối</text></g></svg>