<svg xmlns="http://www.w3.org/2000/svg" width="1100" height="327" viewBox="0 0 1380 410"><rect width="1380" height="410" fill="#F5F7FB"/><g transform="translate(20 20)"><rect width="660" height="370" rx="18" fill="white" stroke="#E2E8F0"/><text x="24" y="30" font-size="16" font-weight="800" fill="#0F172A">Khoảng cách vùng theo điểm trung bình và trung vị</text><g transform="translate(10 52) scale(1.0)"><g><line x1="56" x2="622" y1="18" y2="18" stroke="#E2E8F0" stroke-width="1"></line><text x="48" y="22" text-anchor="end" font-size="11" font-weight="700" fill="#64748B">0.9</text></g><g><line x1="56" x2="622" y1="68" y2="68" stroke="#E2E8F0" stroke-width="1"></line><text x="48" y="72" text-anchor="end" font-size="11" font-weight="700" fill="#64748B">0.7</text></g><g><line x1="56" x2="622" y1="118" y2="118" stroke="#E2E8F0" stroke-width="1"></line><text x="48" y="122" text-anchor="end" font-size="11" font-weight="700" fill="#64748B">0.5</text></g><g><line x1="56" x2="622" y1="168" y2="168" stroke="#E2E8F0" stroke-width="1"></line><text x="48" y="172" text-anchor="end" font-size="11" font-weight="700" fill="#64748B">0.3</text></g><g><line x1="56" x2="622" y1="218" y2="218" stroke="#E2E8F0" stroke-width="1"></line><text x="48" y="222" text-anchor="end" font-size="11" font-weight="700" fill="#64748B">0.0</text></g><text x="56" y="246" text-anchor="middle" font-size="12" fill="#64748B">Ngoại ngữ</text><text x="126.75" y="246" text-anchor="middle" font-size="12" fill="#64748B">Vật lí</text><text x="197.5" y="246" text-anchor="middle" font-size="12" fill="#64748B">Ngữ văn</text><text x="268.25" y="246" text-anchor="middle" font-size="12" fill="#64748B">GDCD</text><text x="339" y="246" text-anchor="middle" font-size="12" fill="#64748B">Toán</text><text x="409.75" y="246" text-anchor="middle" font-size="12" fill="#64748B">Lịch sử</text><text x="480.5" y="246" text-anchor="middle" font-size="12" fill="#64748B">Sinh học</text><text x="551.25" y="246" text-anchor="middle" font-size="12" fill="#64748B">Địa lí</text><text x="622" y="246" text-anchor="middle" font-size="12" fill="#64748B">Hóa học</text><g><path d="M 56 94.19047619047619 L 126.75 101.33333333333333 L 197.5 139.42857142857144 L 268.25 148.95238095238096 L 339 148.95238095238096 L 409.75 160.85714285714286 L 480.5 175.14285714285717 L 551.25 175.14285714285717 L 622 182.28571428571428" fill="none" stroke="#594DA3" stroke-width="3" stroke-linecap="round" stroke-linejoin="round"></path><circle cx="56" cy="94.19047619047619" r="4" fill="white" stroke="#594DA3" stroke-width="2"></circle><circle cx="126.75" cy="101.33333333333333" r="4" fill="white" stroke="#594DA3" stroke-width="2"></circle><circle cx="197.5" cy="139.42857142857144" r="4" fill="white" stroke="#594DA3" stroke-width="2"></circle><circle cx="268.25" cy="148.95238095238096" r="4" fill="white" stroke="#594DA3" stroke-width="2"></circle><circle cx="339" cy="148.95238095238096" r="4" fill="white" stroke="#594DA3" stroke-width="2"></circle><circle cx="409.75" cy="160.85714285714286" r="4" fill="white" stroke="#594DA3" stroke-width="2"></circle><circle cx="480.5" cy="175.14285714285717" r="4" fill="white" stroke="#594DA3" stroke-width="2"></circle><circle cx="551.25" cy="175.14285714285717" r="4" fill="white" stroke="#594DA3" stroke-width="2"></circle><circle cx="622" cy="182.28571428571428" r="4" fill="white" stroke="#594DA3" stroke-width="2"></circle></g><g><path d="M 56 53.71428571428572 L 126.75 68 L 197.5 108.47619047619048 L 268.25 148.95238095238096 L 339 179.9047619047619 L 409.75 148.95238095238096 L 480.5 168 L 551.25 168 L 622 168" fill="none" stroke="#826ACA" stroke-width="3" stroke-linecap="round" stroke-linejoin="round"></path><circle cx="56" cy="53.71428571428572" r="4" fill="white" stroke="#826ACA" stroke-width="2"></circle><circle cx="126.75" cy="68" r="4" fill="white" stroke="#826ACA" stroke-width="2"></circle><circle cx="197.5" cy="108.47619047619048" r="4" fill="white" stroke="#826ACA" stroke-width="2"></circle><circle cx="268.25" cy="148.95238095238096" r="4" fill="white" stroke="#826ACA" stroke-width="2"></circle><circle cx="339" cy="179.9047619047619" r="4" fill="white" stroke="#826ACA" stroke-width="2"></circle><circle cx="409.75" cy="148.95238095238096" r="4" fill="white" stroke="#826ACA" stroke-width="2"></circle><circle cx="480.5" cy="168" r="4" fill="white" stroke="#826ACA" stroke-width="2"></circle><circle cx="551.25" cy="168" r="4" fill="white" stroke="#826ACA" stroke-width="2"></circle><circle cx="622" cy="168" r="4" fill="white" stroke="#826ACA" stroke-width="2"></circle></g></g><circle cx="30" cy="342" r="5" fill="#594DA3"/><text x="42" y="346" font-size="12" font-weight="700" fill="#64748B">Khoảng cách TB</text><circle cx="280" cy="342" r="5" fill="#826ACA"/><text x="292" y="346" font-size="12" font-weight="700" fill="#64748B">Khoảng cách trung vị</text></g><g transform="translate(700 20)"><rect width="660" height="370" rx="18" fill="white" stroke="#E2E8F0"/><text x="24" y="30" font-size="16" font-weight="800" fill="#0F172A">Khoảng cách trong nhóm đạt từ 8 điểm</text><g transform="translate(10 52) scale(1.0)"><g><line x1="56" x2="622" y1="18" y2="18" stroke="#E2E8F0" stroke-width="1"></line><text x="48" y="22" text-anchor="end" font-size="11" font-weight="700" fill="#64748B">16%</text></g><g><line x1="56" x2="622" y1="68" y2="68" stroke="#E2E8F0" stroke-width="1"></line><text x="48" y="72" text-anchor="end" font-size="11" font-weight="700" fill="#64748B">12%</text></g><g><line x1="56" x2="622" y1="118" y2="118" stroke="#E2E8F0" stroke-width="1"></line><text x="48" y="122" text-anchor="end" font-size="11" font-weight="700" fill="#64748B">9%</text></g><g><line x1="56" x2="622" y1="168" y2="168" stroke="#E2E8F0" stroke-width="1"></line><text x="48" y="172" text-anchor="end" font-size="11" font-weight="700" fill="#64748B">5%</text></g><g><line x1="56" x2="622" y1="218" y2="218" stroke="#E2E8F0" stroke-width="1"></line><text x="48" y="222" text-anchor="end" font-size="11" font-weight="700" fill="#64748B">1%</text></g><text x="56" y="246" text-anchor="middle" font-size="12" fill="#64748B">Ngoại ngữ</text><text x="126.75" y="246" text-anchor="middle" font-size="12" fill="#64748B">Vật lí</text><text x="197.5" y="246" text-anchor="middle" font-size="12" fill="#64748B">Ngữ văn</text><text x="268.25" y="246" text-anchor="middle" font-size="12" fill="#64748B">GDCD</text><text x="339" y="246" text-anchor="middle" font-size="12" fill="#64748B">Toán</text><text x="409.75" y="246" text-anchor="middle" font-size="12" fill="#64748B">Lịch sử</text><text x="480.5" y="246" text-anchor="middle" font-size="12" fill="#64748B">Sinh học</text><text x="551.25" y="246" text-anchor="middle" font-size="12" fill="#64748B">Địa lí</text><text x="622" y="246" text-anchor="middle" font-size="12" fill="#64748B">Hóa học</text><g><path d="M 56 158.5224380442063 L 126.75 24.16208975217681 L 197.5 20.00937709310112 L 268.25 77.6115204286671 L 339 168.16744809109176 L 409.75 162.00535833891493 L 480.5 215.99062290689886 L 551.25 171.91828533154722 L 622 100.38446081714667" fill="none" stroke="#F87171" stroke-width="3" stroke-linecap="round" stroke-linejoin="round"></path><circle cx="56" cy="158.5224380442063" r="4" fill="white" stroke="#F87171" stroke-width="2"></circle><circle cx="126.75" cy="24.16208975217681" r="4" fill="white" stroke="#F87171" stroke-width="2"></circle><circle cx="197.5" cy="20.00937709310112" r="4" fill="white" stroke="#F87171" stroke-width="2"></circle><circle cx="268.25" cy="77.6115204286671" r="4" fill="white" stroke="#F87171" stroke-width="2"></circle><circle cx="339" cy="168.16744809109176" r="4" fill="white" stroke="#F87171" stroke-width="2"></circle><circle cx="409.75" cy="162.00535833891493" r="4" fill="white" stroke="#F87171" stroke-width="2"></circle><circle cx="480.5" cy="215.99062290689886" r="4" fill="white" stroke="#F87171" stroke-width="2"></circle><circle cx="551.25" cy="171.91828533154722" r="4" fill="white" stroke="#F87171" stroke-width="2"></circle><circle cx="622" cy="100.38446081714667" r="4" fill="white" stroke="#F87171" stroke-width="2"></circle></g></g><circle cx="30" cy="342" r="5" fill="#F87171"/><text x="42" y="346" font-size="12" font-weight="700" fill="#64748B">Chênh lệch tỷ lệ từ 8 điểm (điểm %)</text></g></svg>