<svg viewBox="0 0 640 260" class="h-72 w-full"><g><line x1="56" x2="622" y1="18" y2="18" stroke="#E2E8F0" stroke-width="1"></line><text x="48" y="22" text-anchor="end" font-size="11" font-weight="700" fill="#64748B">16%</text></g><g><line x1="56" x2="622" y1="68" y2="68" stroke="#E2E8F0" stroke-width="1"></line><text x="48" y="72" text-anchor="end" font-size="11" font-weight="700" fill="#64748B">12%</text></g><g><line x1="56" x2="622" y1="118" y2="118" stroke="#E2E8F0" stroke-width="1"></line><text x="48" y="122" text-anchor="end" font-size="11" font-weight="700" fill="#64748B">9%</text></g><g><line x1="56" x2="622" y1="168" y2="168" stroke="#E2E8F0" stroke-width="1"></line><text x="48" y="172" text-anchor="end" font-size="11" font-weight="700" fill="#64748B">5%</text></g><g><line x1="56" x2="622" y1="218" y2="218" stroke="#E2E8F0" stroke-width="1"></line><text x="48" y="222" text-anchor="end" font-size="11" font-weight="700" fill="#64748B">1%</text></g><text x="56" y="246" text-anchor="middle" font-size="12" fill="#64748B">Ngoại ngữ</text><text x="126.75" y="246" text-anchor="middle" font-size="12" fill="#64748B">Vật lí</text><text x="197.5" y="246" text-anchor="middle" font-size="12" fill="#64748B">Ngữ văn</text><text x="268.25" y="246" text-anchor="middle" font-size="12" fill="#64748B">GDCD</text><text x="339" y="246" text-anchor="middle" font-size="12" fill="#64748B">Toán</text><text x="409.75" y="246" text-anchor="middle" font-size="12" fill="#64748B">Lịch sử</text><text x="480.5" y="246" text-anchor="middle" font-size="12" fill="#64748B">Sinh học</text><text x="551.25" y="246" text-anchor="middle" font-size="12" fill="#64748B">Địa lí</text><text x="622" y="246" text-anchor="middle" font-size="12" fill="#64748B">Hóa học</text><g><path d="M 56 158.5224380442063 L 126.75 24.16208975217681 L 197.5 20.00937709310112 L 268.25 77.6115204286671 L 339 168.16744809109176 L 409.75 162.00535833891493 L 480.5 215.99062290689886 L 551.25 171.91828533154722 L 622 100.38446081714667" fill="none" stroke="#F87171" stroke-width="3" stroke-linecap="round" stroke-linejoin="round"></path><circle cx="56" cy="158.5224380442063" r="4" fill="white" stroke="#F87171" stroke-width="2"></circle><circle cx="126.75" cy="24.16208975217681" r="4" fill="white" stroke="#F87171" stroke-width="2"></circle><circle cx="197.5" cy="20.00937709310112" r="4" fill="white" stroke="#F87171" stroke-width="2"></circle><circle cx="268.25" cy="77.6115204286671" r="4" fill="white" stroke="#F87171" stroke-width="2"></circle><circle cx="339" cy="168.16744809109176" r="4" fill="white" stroke="#F87171" stroke-width="2"></circle><circle cx="409.75" cy="162.00535833891493" r="4" fill="white" stroke="#F87171" stroke-width="2"></circle><circle cx="480.5" cy="215.99062290689886" r="4" fill="white" stroke="#F87171" stroke-width="2"></circle><circle cx="551.25" cy="171.91828533154722" r="4" fill="white" stroke="#F87171" stroke-width="2"></circle><circle cx="622" cy="100.38446081714667" r="4" fill="white" stroke="#F87171" stroke-width="2"></circle></g></svg>